<svg width="120" height="80" viewBox="0 0 120 80" fill="none" xmlns="http://www.w3.org/2000/svg">
<g clip-path="url(#clip0_1_16)">
<path d="M34.16 28.3C34.16 32.8267 32.83 36.21 30.17 38.45C27.51 40.69 23.59 41.81 18.41 41.81H7.35V64H5.95V14.72H18.41C23.8233 14.72 27.79 15.91 30.31 18.29C32.8767 20.67 34.16 24.0067 34.16 28.3ZM18.41 40.34C23.45 40.34 27.09 39.29 29.33 37.19C31.6167 35.09 32.76 32.1267 32.76 28.3C32.76 24.2867 31.64 21.2533 29.4 19.2C27.16 17.1467 23.4967 16.12 18.41 16.12H7.35V40.34H18.41Z" fill="#FD6726"/>
<path d="M40.15 35.46H48.25V36H39.55V14.88H40.15V35.46ZM51.8359 14.88V27.99C51.8359 30.67 52.4159 32.62 53.5759 33.84C54.7559 35.06 56.3459 35.67 58.3459 35.67C60.3059 35.67 61.8559 35.06 62.9959 33.84C64.1359 32.62 64.7059 30.67 64.7059 27.99V14.88H65.3059V27.99C65.3059 30.79 64.6859 32.86 63.4459 34.2C62.2259 35.54 60.5259 36.21 58.3459 36.21C56.1659 36.21 54.4359 35.54 53.1559 34.2C51.8759 32.84 51.2359 30.77 51.2359 27.99V14.88H51.8359ZM69.5031 25.47C69.5031 23.37 69.9231 21.51 70.7631 19.89C71.6031 18.25 72.7731 16.97 74.2731 16.05C75.7731 15.13 77.4631 14.67 79.3431 14.67C81.8031 14.67 83.8331 15.24 85.4331 16.38C87.0531 17.52 88.2331 19.1 88.9731 21.12H88.3731C87.7331 19.34 86.6431 17.91 85.1031 16.83C83.5631 15.75 81.6431 15.21 79.3431 15.21C77.6231 15.21 76.0631 15.63 74.6631 16.47C73.2631 17.29 72.1531 18.48 71.3331 20.04C70.5331 21.58 70.1331 23.39 70.1331 25.47C70.1331 27.53 70.5331 29.33 71.3331 30.87C72.1531 32.41 73.2631 33.6 74.6631 34.44C76.0831 35.26 77.6431 35.67 79.3431 35.67C81.6431 35.67 83.5631 35.14 85.1031 34.08C86.6431 33 87.7331 31.57 88.3731 29.79H88.9731C88.2331 31.81 87.0531 33.39 85.4331 34.53C83.8331 35.65 81.8031 36.21 79.3431 36.21C77.4631 36.21 75.7731 35.76 74.2731 34.86C72.7731 33.94 71.6031 32.67 70.7631 31.05C69.9231 29.41 69.5031 27.55 69.5031 25.47ZM105.01 30.18H94.5698L92.3498 36H91.6598L99.4898 15.51H100.09L107.89 36H107.2L105.01 30.18ZM104.8 29.64L99.7898 16.47L94.7798 29.64H104.8Z" fill="white"/>
<path d="M58.36 43.48V64H57.76V44.95L49.27 64H48.67L40.15 44.95V64H39.55V43.48H40.15L48.97 63.22L57.76 43.48H58.36ZM64.0563 42.88V64H63.4563V42.88H64.0563ZM83.5391 42.88V64H82.9391V53.41H69.7691V64H69.1691V42.88H69.7691V52.87H82.9391V42.88H83.5391ZM100.381 58.18H89.9409L87.7209 64H87.0309L94.8609 43.51H95.4609L103.261 64H102.571L100.381 58.18ZM100.171 57.64L95.1609 44.47L90.1509 57.64H100.171ZM107.298 42.88V64H106.698V42.88H107.298Z" fill="white"/>
</g>
<defs>
<clipPath id="clip0_1_16">
<rect width="120" height="80" rx="2" fill="white"/>
</clipPath>
</defs>
</svg>
